<mxfile host="app.diagrams.net" modified="2024-07-11T09:08:59.035Z" agent="Mozilla/5.0 (Windows NT 10.0; Win64; x64) AppleWebKit/537.36 (KHTML, like Gecko) Chrome/126.0.0.0 Safari/537.36" etag="POaZDj0_FEAi1Sxe4z9W" version="24.6.4" type="github">
  <diagram name="第 1 页" id="NiPHxGcCJjQwnjdoAiQd">
    <mxGraphModel dx="1221" dy="759" grid="0" gridSize="10" guides="1" tooltips="1" connect="1" arrows="1" fold="1" page="1" pageScale="1" pageWidth="827" pageHeight="1169" math="0" shadow="0">
      <root>
        <mxCell id="0" />
        <mxCell id="1" parent="0" />
        <mxCell id="tUD2QYdTVGgYaHRp5bcU-34" value="&lt;span style=&quot;color: rgba(0, 0, 0, 0); font-family: monospace; font-size: 0px; text-align: start;&quot;&gt;%3CmxGraphModel%3E%3Croot%3E%3CmxCell%20id%3D%220%22%2F%3E%3CmxCell%20id%3D%221%22%20parent%3D%220%22%2F%3E%3CmxCell%20id%3D%222%22%20value%3D%22%22%20style%3D%22shape%3DpartialRectangle%3Bconnectable%3D0%3BfillColor%3Dnone%3Btop%3D0%3Bleft%3D0%3Bbottom%3D0%3Bright%3D0%3Beditable%3D1%3Boverflow%3Dhidden%3BwhiteSpace%3Dwrap%3Bhtml%3D1%3B%22%20vertex%3D%221%22%20parent%3D%221%22%3E%3CmxGeometry%20x%3D%22193%22%20y%3D%22219%22%20width%3D%2230.41668701171875%22%20height%3D%2234%22%20as%3D%22geometry%22%3E%3CmxRectangle%20width%3D%2230.41668701171875%22%20height%3D%2234%22%20as%3D%22alternateBounds%22%2F%3E%3C%2FmxGeometry%3E%3C%2FmxCell%3E%3C%2Froot%3E%3C%2FmxGraphModel%3E&lt;/span&gt;" style="text;html=1;align=center;verticalAlign=middle;resizable=0;points=[];autosize=1;strokeColor=none;fillColor=none;" vertex="1" parent="1">
          <mxGeometry x="207" y="255" width="18" height="26" as="geometry" />
        </mxCell>
        <mxCell id="tUD2QYdTVGgYaHRp5bcU-35" value="" style="shape=partialRectangle;connectable=0;fillColor=none;top=0;left=0;bottom=0;right=0;editable=1;overflow=hidden;whiteSpace=wrap;html=1;" vertex="1" parent="1">
          <mxGeometry x="186" y="217" width="30.41668701171875" height="34" as="geometry">
            <mxRectangle width="30.41668701171875" height="34" as="alternateBounds" />
          </mxGeometry>
        </mxCell>
        <mxCell id="tUD2QYdTVGgYaHRp5bcU-81" value="t_finance_receipt - 收款单" style="shape=table;startSize=30;container=1;collapsible=1;childLayout=tableLayout;fixedRows=1;rowLines=0;fontStyle=1;align=center;resizeLast=1;html=1;" vertex="1" parent="1">
          <mxGeometry x="25" y="46" width="280" height="720.6700610351562" as="geometry" />
        </mxCell>
        <mxCell id="tUD2QYdTVGgYaHRp5bcU-82" value="" style="shape=tableRow;horizontal=0;startSize=0;swimlaneHead=0;swimlaneBody=0;fillColor=none;collapsible=0;dropTarget=0;points=[[0,0.5],[1,0.5]];portConstraint=eastwest;top=0;left=0;right=0;bottom=1;" vertex="1" parent="tUD2QYdTVGgYaHRp5bcU-81">
          <mxGeometry y="30" width="280" height="30" as="geometry" />
        </mxCell>
        <mxCell id="tUD2QYdTVGgYaHRp5bcU-83" value="PK" style="shape=partialRectangle;connectable=0;fillColor=none;top=0;left=0;bottom=0;right=0;fontStyle=1;overflow=hidden;whiteSpace=wrap;html=1;" vertex="1" parent="tUD2QYdTVGgYaHRp5bcU-82">
          <mxGeometry width="148.41668701171875" height="30" as="geometry">
            <mxRectangle width="148.41668701171875" height="30" as="alternateBounds" />
          </mxGeometry>
        </mxCell>
        <mxCell id="tUD2QYdTVGgYaHRp5bcU-84" value="id" style="shape=partialRectangle;connectable=0;fillColor=none;top=0;left=0;bottom=0;right=0;align=left;spacingLeft=6;fontStyle=5;overflow=hidden;whiteSpace=wrap;html=1;" vertex="1" parent="tUD2QYdTVGgYaHRp5bcU-82">
          <mxGeometry x="148.41668701171875" width="131.58331298828125" height="30" as="geometry">
            <mxRectangle width="131.58331298828125" height="30" as="alternateBounds" />
          </mxGeometry>
        </mxCell>
        <mxCell id="tUD2QYdTVGgYaHRp5bcU-85" value="" style="shape=tableRow;horizontal=0;startSize=0;swimlaneHead=0;swimlaneBody=0;fillColor=none;collapsible=0;dropTarget=0;points=[[0,0.5],[1,0.5]];portConstraint=eastwest;top=0;left=0;right=0;bottom=0;" vertex="1" parent="tUD2QYdTVGgYaHRp5bcU-81">
          <mxGeometry y="60" width="280" height="27" as="geometry" />
        </mxCell>
        <mxCell id="tUD2QYdTVGgYaHRp5bcU-86" value="&lt;span style=&quot;text-align: left;&quot;&gt;收款单号&lt;/span&gt;" style="shape=partialRectangle;connectable=0;fillColor=none;top=0;left=0;bottom=0;right=0;editable=1;overflow=hidden;whiteSpace=wrap;html=1;" vertex="1" parent="tUD2QYdTVGgYaHRp5bcU-85">
          <mxGeometry width="148.41668701171875" height="27" as="geometry">
            <mxRectangle width="148.41668701171875" height="27" as="alternateBounds" />
          </mxGeometry>
        </mxCell>
        <mxCell id="tUD2QYdTVGgYaHRp5bcU-87" value="receipt_code" style="shape=partialRectangle;connectable=0;fillColor=none;top=0;left=0;bottom=0;right=0;align=left;spacingLeft=6;overflow=hidden;whiteSpace=wrap;html=1;" vertex="1" parent="tUD2QYdTVGgYaHRp5bcU-85">
          <mxGeometry x="148.41668701171875" width="131.58331298828125" height="27" as="geometry">
            <mxRectangle width="131.58331298828125" height="27" as="alternateBounds" />
          </mxGeometry>
        </mxCell>
        <mxCell id="tUD2QYdTVGgYaHRp5bcU-88" value="" style="shape=tableRow;horizontal=0;startSize=0;swimlaneHead=0;swimlaneBody=0;fillColor=none;collapsible=0;dropTarget=0;points=[[0,0.5],[1,0.5]];portConstraint=eastwest;top=0;left=0;right=0;bottom=0;" vertex="1" parent="tUD2QYdTVGgYaHRp5bcU-81">
          <mxGeometry y="87" width="280" height="29" as="geometry" />
        </mxCell>
        <mxCell id="tUD2QYdTVGgYaHRp5bcU-89" value="&lt;span style=&quot;text-align: left;&quot;&gt;客户id&lt;/span&gt;" style="shape=partialRectangle;connectable=0;fillColor=none;top=0;left=0;bottom=0;right=0;editable=1;overflow=hidden;whiteSpace=wrap;html=1;" vertex="1" parent="tUD2QYdTVGgYaHRp5bcU-88">
          <mxGeometry width="148.41668701171875" height="29" as="geometry">
            <mxRectangle width="148.41668701171875" height="29" as="alternateBounds" />
          </mxGeometry>
        </mxCell>
        <mxCell id="tUD2QYdTVGgYaHRp5bcU-90" value="dp_id" style="shape=partialRectangle;connectable=0;fillColor=none;top=0;left=0;bottom=0;right=0;align=left;spacingLeft=6;overflow=hidden;whiteSpace=wrap;html=1;" vertex="1" parent="tUD2QYdTVGgYaHRp5bcU-88">
          <mxGeometry x="148.41668701171875" width="131.58331298828125" height="29" as="geometry">
            <mxRectangle width="131.58331298828125" height="29" as="alternateBounds" />
          </mxGeometry>
        </mxCell>
        <mxCell id="tUD2QYdTVGgYaHRp5bcU-91" value="" style="shape=tableRow;horizontal=0;startSize=0;swimlaneHead=0;swimlaneBody=0;fillColor=none;collapsible=0;dropTarget=0;points=[[0,0.5],[1,0.5]];portConstraint=eastwest;top=0;left=0;right=0;bottom=0;" vertex="1" parent="tUD2QYdTVGgYaHRp5bcU-81">
          <mxGeometry y="116" width="280" height="30" as="geometry" />
        </mxCell>
        <mxCell id="tUD2QYdTVGgYaHRp5bcU-92" value="收款金额" style="shape=partialRectangle;connectable=0;fillColor=none;top=0;left=0;bottom=0;right=0;editable=1;overflow=hidden;whiteSpace=wrap;html=1;" vertex="1" parent="tUD2QYdTVGgYaHRp5bcU-91">
          <mxGeometry width="148.41668701171875" height="30" as="geometry">
            <mxRectangle width="148.41668701171875" height="30" as="alternateBounds" />
          </mxGeometry>
        </mxCell>
        <mxCell id="tUD2QYdTVGgYaHRp5bcU-93" value="receipt_amount" style="shape=partialRectangle;connectable=0;fillColor=none;top=0;left=0;bottom=0;right=0;align=left;spacingLeft=6;overflow=hidden;whiteSpace=wrap;html=1;" vertex="1" parent="tUD2QYdTVGgYaHRp5bcU-91">
          <mxGeometry x="148.41668701171875" width="131.58331298828125" height="30" as="geometry">
            <mxRectangle width="131.58331298828125" height="30" as="alternateBounds" />
          </mxGeometry>
        </mxCell>
        <mxCell id="tUD2QYdTVGgYaHRp5bcU-94" style="shape=tableRow;horizontal=0;startSize=0;swimlaneHead=0;swimlaneBody=0;fillColor=none;collapsible=0;dropTarget=0;points=[[0,0.5],[1,0.5]];portConstraint=eastwest;top=0;left=0;right=0;bottom=0;" vertex="1" parent="tUD2QYdTVGgYaHRp5bcU-81">
          <mxGeometry y="146" width="280" height="26" as="geometry" />
        </mxCell>
        <mxCell id="tUD2QYdTVGgYaHRp5bcU-95" value="使用金额" style="shape=partialRectangle;connectable=0;fillColor=none;top=0;left=0;bottom=0;right=0;editable=1;overflow=hidden;whiteSpace=wrap;html=1;" vertex="1" parent="tUD2QYdTVGgYaHRp5bcU-94">
          <mxGeometry width="148.41668701171875" height="26" as="geometry">
            <mxRectangle width="148.41668701171875" height="26" as="alternateBounds" />
          </mxGeometry>
        </mxCell>
        <mxCell id="tUD2QYdTVGgYaHRp5bcU-96" value="use_amount" style="shape=partialRectangle;connectable=0;fillColor=none;top=0;left=0;bottom=0;right=0;align=left;spacingLeft=6;overflow=hidden;whiteSpace=wrap;html=1;" vertex="1" parent="tUD2QYdTVGgYaHRp5bcU-94">
          <mxGeometry x="148.41668701171875" width="131.58331298828125" height="26" as="geometry">
            <mxRectangle width="131.58331298828125" height="26" as="alternateBounds" />
          </mxGeometry>
        </mxCell>
        <mxCell id="tUD2QYdTVGgYaHRp5bcU-97" style="shape=tableRow;horizontal=0;startSize=0;swimlaneHead=0;swimlaneBody=0;fillColor=none;collapsible=0;dropTarget=0;points=[[0,0.5],[1,0.5]];portConstraint=eastwest;top=0;left=0;right=0;bottom=0;" vertex="1" parent="tUD2QYdTVGgYaHRp5bcU-81">
          <mxGeometry y="172" width="280" height="25" as="geometry" />
        </mxCell>
        <mxCell id="tUD2QYdTVGgYaHRp5bcU-98" value="联系人" style="shape=partialRectangle;connectable=0;fillColor=none;top=0;left=0;bottom=0;right=0;editable=1;overflow=hidden;whiteSpace=wrap;html=1;" vertex="1" parent="tUD2QYdTVGgYaHRp5bcU-97">
          <mxGeometry width="148.41668701171875" height="25" as="geometry">
            <mxRectangle width="148.41668701171875" height="25" as="alternateBounds" />
          </mxGeometry>
        </mxCell>
        <mxCell id="tUD2QYdTVGgYaHRp5bcU-99" value="link_name" style="shape=partialRectangle;connectable=0;fillColor=none;top=0;left=0;bottom=0;right=0;align=left;spacingLeft=6;overflow=hidden;whiteSpace=wrap;html=1;" vertex="1" parent="tUD2QYdTVGgYaHRp5bcU-97">
          <mxGeometry x="148.41668701171875" width="131.58331298828125" height="25" as="geometry">
            <mxRectangle width="131.58331298828125" height="25" as="alternateBounds" />
          </mxGeometry>
        </mxCell>
        <mxCell id="tUD2QYdTVGgYaHRp5bcU-100" style="shape=tableRow;horizontal=0;startSize=0;swimlaneHead=0;swimlaneBody=0;fillColor=none;collapsible=0;dropTarget=0;points=[[0,0.5],[1,0.5]];portConstraint=eastwest;top=0;left=0;right=0;bottom=0;" vertex="1" parent="tUD2QYdTVGgYaHRp5bcU-81">
          <mxGeometry y="197" width="280" height="30" as="geometry" />
        </mxCell>
        <mxCell id="tUD2QYdTVGgYaHRp5bcU-101" value="支付方式" style="shape=partialRectangle;connectable=0;fillColor=none;top=0;left=0;bottom=0;right=0;editable=1;overflow=hidden;whiteSpace=wrap;html=1;" vertex="1" parent="tUD2QYdTVGgYaHRp5bcU-100">
          <mxGeometry width="148.41668701171875" height="30" as="geometry">
            <mxRectangle width="148.41668701171875" height="30" as="alternateBounds" />
          </mxGeometry>
        </mxCell>
        <mxCell id="tUD2QYdTVGgYaHRp5bcU-102" value="pay_mode" style="shape=partialRectangle;connectable=0;fillColor=none;top=0;left=0;bottom=0;right=0;align=left;spacingLeft=6;overflow=hidden;whiteSpace=wrap;html=1;" vertex="1" parent="tUD2QYdTVGgYaHRp5bcU-100">
          <mxGeometry x="148.41668701171875" width="131.58331298828125" height="30" as="geometry">
            <mxRectangle width="131.58331298828125" height="30" as="alternateBounds" />
          </mxGeometry>
        </mxCell>
        <mxCell id="tUD2QYdTVGgYaHRp5bcU-103" style="shape=tableRow;horizontal=0;startSize=0;swimlaneHead=0;swimlaneBody=0;fillColor=none;collapsible=0;dropTarget=0;points=[[0,0.5],[1,0.5]];portConstraint=eastwest;top=0;left=0;right=0;bottom=0;" vertex="1" parent="tUD2QYdTVGgYaHRp5bcU-81">
          <mxGeometry y="227" width="280" height="26" as="geometry" />
        </mxCell>
        <mxCell id="tUD2QYdTVGgYaHRp5bcU-104" value="支付类型" style="shape=partialRectangle;connectable=0;fillColor=none;top=0;left=0;bottom=0;right=0;editable=1;overflow=hidden;whiteSpace=wrap;html=1;" vertex="1" parent="tUD2QYdTVGgYaHRp5bcU-103">
          <mxGeometry width="148.41668701171875" height="26" as="geometry">
            <mxRectangle width="148.41668701171875" height="26" as="alternateBounds" />
          </mxGeometry>
        </mxCell>
        <mxCell id="tUD2QYdTVGgYaHRp5bcU-105" value="pay_type" style="shape=partialRectangle;connectable=0;fillColor=none;top=0;left=0;bottom=0;right=0;align=left;spacingLeft=6;overflow=hidden;whiteSpace=wrap;html=1;" vertex="1" parent="tUD2QYdTVGgYaHRp5bcU-103">
          <mxGeometry x="148.41668701171875" width="131.58331298828125" height="26" as="geometry">
            <mxRectangle width="131.58331298828125" height="26" as="alternateBounds" />
          </mxGeometry>
        </mxCell>
        <mxCell id="tUD2QYdTVGgYaHRp5bcU-106" style="shape=tableRow;horizontal=0;startSize=0;swimlaneHead=0;swimlaneBody=0;fillColor=none;collapsible=0;dropTarget=0;points=[[0,0.5],[1,0.5]];portConstraint=eastwest;top=0;left=0;right=0;bottom=0;" vertex="1" parent="tUD2QYdTVGgYaHRp5bcU-81">
          <mxGeometry y="253" width="280" height="28" as="geometry" />
        </mxCell>
        <mxCell id="tUD2QYdTVGgYaHRp5bcU-107" value="汇款银行账号" style="shape=partialRectangle;connectable=0;fillColor=none;top=0;left=0;bottom=0;right=0;editable=1;overflow=hidden;whiteSpace=wrap;html=1;" vertex="1" parent="tUD2QYdTVGgYaHRp5bcU-106">
          <mxGeometry width="148.41668701171875" height="28" as="geometry">
            <mxRectangle width="148.41668701171875" height="28" as="alternateBounds" />
          </mxGeometry>
        </mxCell>
        <mxCell id="tUD2QYdTVGgYaHRp5bcU-108" value="remit_bank_id" style="shape=partialRectangle;connectable=0;fillColor=none;top=0;left=0;bottom=0;right=0;align=left;spacingLeft=6;overflow=hidden;whiteSpace=wrap;html=1;" vertex="1" parent="tUD2QYdTVGgYaHRp5bcU-106">
          <mxGeometry x="148.41668701171875" width="131.58331298828125" height="28" as="geometry">
            <mxRectangle width="131.58331298828125" height="28" as="alternateBounds" />
          </mxGeometry>
        </mxCell>
        <mxCell id="tUD2QYdTVGgYaHRp5bcU-109" style="shape=tableRow;horizontal=0;startSize=0;swimlaneHead=0;swimlaneBody=0;fillColor=none;collapsible=0;dropTarget=0;points=[[0,0.5],[1,0.5]];portConstraint=eastwest;top=0;left=0;right=0;bottom=0;" vertex="1" parent="tUD2QYdTVGgYaHRp5bcU-81">
          <mxGeometry y="281" width="280" height="30" as="geometry" />
        </mxCell>
        <mxCell id="tUD2QYdTVGgYaHRp5bcU-110" value="收款银行账号" style="shape=partialRectangle;connectable=0;fillColor=none;top=0;left=0;bottom=0;right=0;editable=1;overflow=hidden;whiteSpace=wrap;html=1;" vertex="1" parent="tUD2QYdTVGgYaHRp5bcU-109">
          <mxGeometry width="148.41668701171875" height="30" as="geometry">
            <mxRectangle width="148.41668701171875" height="30" as="alternateBounds" />
          </mxGeometry>
        </mxCell>
        <mxCell id="tUD2QYdTVGgYaHRp5bcU-111" value="receipt_bank_id" style="shape=partialRectangle;connectable=0;fillColor=none;top=0;left=0;bottom=0;right=0;align=left;spacingLeft=6;overflow=hidden;whiteSpace=wrap;html=1;" vertex="1" parent="tUD2QYdTVGgYaHRp5bcU-109">
          <mxGeometry x="148.41668701171875" width="131.58331298828125" height="30" as="geometry">
            <mxRectangle width="131.58331298828125" height="30" as="alternateBounds" />
          </mxGeometry>
        </mxCell>
        <mxCell id="tUD2QYdTVGgYaHRp5bcU-112" style="shape=tableRow;horizontal=0;startSize=0;swimlaneHead=0;swimlaneBody=0;fillColor=none;collapsible=0;dropTarget=0;points=[[0,0.5],[1,0.5]];portConstraint=eastwest;top=0;left=0;right=0;bottom=0;" vertex="1" parent="tUD2QYdTVGgYaHRp5bcU-81">
          <mxGeometry y="311" width="280" height="30" as="geometry" />
        </mxCell>
        <mxCell id="tUD2QYdTVGgYaHRp5bcU-113" value="支付时间" style="shape=partialRectangle;connectable=0;fillColor=none;top=0;left=0;bottom=0;right=0;editable=1;overflow=hidden;whiteSpace=wrap;html=1;" vertex="1" parent="tUD2QYdTVGgYaHRp5bcU-112">
          <mxGeometry width="148.41668701171875" height="30" as="geometry">
            <mxRectangle width="148.41668701171875" height="30" as="alternateBounds" />
          </mxGeometry>
        </mxCell>
        <mxCell id="tUD2QYdTVGgYaHRp5bcU-114" value="pay_date" style="shape=partialRectangle;connectable=0;fillColor=none;top=0;left=0;bottom=0;right=0;align=left;spacingLeft=6;overflow=hidden;whiteSpace=wrap;html=1;" vertex="1" parent="tUD2QYdTVGgYaHRp5bcU-112">
          <mxGeometry x="148.41668701171875" width="131.58331298828125" height="30" as="geometry">
            <mxRectangle width="131.58331298828125" height="30" as="alternateBounds" />
          </mxGeometry>
        </mxCell>
        <mxCell id="tUD2QYdTVGgYaHRp5bcU-115" style="shape=tableRow;horizontal=0;startSize=0;swimlaneHead=0;swimlaneBody=0;fillColor=none;collapsible=0;dropTarget=0;points=[[0,0.5],[1,0.5]];portConstraint=eastwest;top=0;left=0;right=0;bottom=0;" vertex="1" parent="tUD2QYdTVGgYaHRp5bcU-81">
          <mxGeometry y="341" width="280" height="30" as="geometry" />
        </mxCell>
        <mxCell id="tUD2QYdTVGgYaHRp5bcU-116" value="到账时间" style="shape=partialRectangle;connectable=0;fillColor=none;top=0;left=0;bottom=0;right=0;editable=1;overflow=hidden;whiteSpace=wrap;html=1;" vertex="1" parent="tUD2QYdTVGgYaHRp5bcU-115">
          <mxGeometry width="148.41668701171875" height="30" as="geometry">
            <mxRectangle width="148.41668701171875" height="30" as="alternateBounds" />
          </mxGeometry>
        </mxCell>
        <mxCell id="tUD2QYdTVGgYaHRp5bcU-117" value="arrive_date" style="shape=partialRectangle;connectable=0;fillColor=none;top=0;left=0;bottom=0;right=0;align=left;spacingLeft=6;overflow=hidden;whiteSpace=wrap;html=1;" vertex="1" parent="tUD2QYdTVGgYaHRp5bcU-115">
          <mxGeometry x="148.41668701171875" width="131.58331298828125" height="30" as="geometry">
            <mxRectangle width="131.58331298828125" height="30" as="alternateBounds" />
          </mxGeometry>
        </mxCell>
        <mxCell id="tUD2QYdTVGgYaHRp5bcU-118" style="shape=tableRow;horizontal=0;startSize=0;swimlaneHead=0;swimlaneBody=0;fillColor=none;collapsible=0;dropTarget=0;points=[[0,0.5],[1,0.5]];portConstraint=eastwest;top=0;left=0;right=0;bottom=0;" vertex="1" parent="tUD2QYdTVGgYaHRp5bcU-81">
          <mxGeometry y="371" width="280" height="37" as="geometry" />
        </mxCell>
        <mxCell id="tUD2QYdTVGgYaHRp5bcU-119" value="状态(待审核/已审核/已拒绝/已删除)" style="shape=partialRectangle;connectable=0;fillColor=none;top=0;left=0;bottom=0;right=0;editable=1;overflow=hidden;whiteSpace=wrap;html=1;" vertex="1" parent="tUD2QYdTVGgYaHRp5bcU-118">
          <mxGeometry width="148.41668701171875" height="37" as="geometry">
            <mxRectangle width="148.41668701171875" height="37" as="alternateBounds" />
          </mxGeometry>
        </mxCell>
        <mxCell id="tUD2QYdTVGgYaHRp5bcU-120" value="receipt_status" style="shape=partialRectangle;connectable=0;fillColor=none;top=0;left=0;bottom=0;right=0;align=left;spacingLeft=6;overflow=hidden;whiteSpace=wrap;html=1;" vertex="1" parent="tUD2QYdTVGgYaHRp5bcU-118">
          <mxGeometry x="148.41668701171875" width="131.58331298828125" height="37" as="geometry">
            <mxRectangle width="131.58331298828125" height="37" as="alternateBounds" />
          </mxGeometry>
        </mxCell>
        <mxCell id="tUD2QYdTVGgYaHRp5bcU-121" style="shape=tableRow;horizontal=0;startSize=0;swimlaneHead=0;swimlaneBody=0;fillColor=none;collapsible=0;dropTarget=0;points=[[0,0.5],[1,0.5]];portConstraint=eastwest;top=0;left=0;right=0;bottom=0;" vertex="1" parent="tUD2QYdTVGgYaHRp5bcU-81">
          <mxGeometry y="408" width="280" height="30" as="geometry" />
        </mxCell>
        <mxCell id="tUD2QYdTVGgYaHRp5bcU-122" value="删除标志" style="shape=partialRectangle;connectable=0;fillColor=none;top=0;left=0;bottom=0;right=0;editable=1;overflow=hidden;whiteSpace=wrap;html=1;" vertex="1" parent="tUD2QYdTVGgYaHRp5bcU-121">
          <mxGeometry width="148.41668701171875" height="30" as="geometry">
            <mxRectangle width="148.41668701171875" height="30" as="alternateBounds" />
          </mxGeometry>
        </mxCell>
        <mxCell id="tUD2QYdTVGgYaHRp5bcU-123" value="del_flag" style="shape=partialRectangle;connectable=0;fillColor=none;top=0;left=0;bottom=0;right=0;align=left;spacingLeft=6;overflow=hidden;whiteSpace=wrap;html=1;" vertex="1" parent="tUD2QYdTVGgYaHRp5bcU-121">
          <mxGeometry x="148.41668701171875" width="131.58331298828125" height="30" as="geometry">
            <mxRectangle width="131.58331298828125" height="30" as="alternateBounds" />
          </mxGeometry>
        </mxCell>
        <mxCell id="tUD2QYdTVGgYaHRp5bcU-124" style="shape=tableRow;horizontal=0;startSize=0;swimlaneHead=0;swimlaneBody=0;fillColor=none;collapsible=0;dropTarget=0;points=[[0,0.5],[1,0.5]];portConstraint=eastwest;top=0;left=0;right=0;bottom=0;" vertex="1" parent="tUD2QYdTVGgYaHRp5bcU-81">
          <mxGeometry y="438" width="280" height="29" as="geometry" />
        </mxCell>
        <mxCell id="tUD2QYdTVGgYaHRp5bcU-125" value="备注信息" style="shape=partialRectangle;connectable=0;fillColor=none;top=0;left=0;bottom=0;right=0;editable=1;overflow=hidden;whiteSpace=wrap;html=1;" vertex="1" parent="tUD2QYdTVGgYaHRp5bcU-124">
          <mxGeometry width="148.41668701171875" height="29" as="geometry">
            <mxRectangle width="148.41668701171875" height="29" as="alternateBounds" />
          </mxGeometry>
        </mxCell>
        <mxCell id="tUD2QYdTVGgYaHRp5bcU-126" value="remarks" style="shape=partialRectangle;connectable=0;fillColor=none;top=0;left=0;bottom=0;right=0;align=left;spacingLeft=6;overflow=hidden;whiteSpace=wrap;html=1;" vertex="1" parent="tUD2QYdTVGgYaHRp5bcU-124">
          <mxGeometry x="148.41668701171875" width="131.58331298828125" height="29" as="geometry">
            <mxRectangle width="131.58331298828125" height="29" as="alternateBounds" />
          </mxGeometry>
        </mxCell>
        <mxCell id="tUD2QYdTVGgYaHRp5bcU-127" style="shape=tableRow;horizontal=0;startSize=0;swimlaneHead=0;swimlaneBody=0;fillColor=none;collapsible=0;dropTarget=0;points=[[0,0.5],[1,0.5]];portConstraint=eastwest;top=0;left=0;right=0;bottom=0;" vertex="1" parent="tUD2QYdTVGgYaHRp5bcU-81">
          <mxGeometry y="467" width="280" height="29" as="geometry" />
        </mxCell>
        <mxCell id="tUD2QYdTVGgYaHRp5bcU-128" value="创建人" style="shape=partialRectangle;connectable=0;fillColor=none;top=0;left=0;bottom=0;right=0;editable=1;overflow=hidden;whiteSpace=wrap;html=1;" vertex="1" parent="tUD2QYdTVGgYaHRp5bcU-127">
          <mxGeometry width="148.41668701171875" height="29" as="geometry">
            <mxRectangle width="148.41668701171875" height="29" as="alternateBounds" />
          </mxGeometry>
        </mxCell>
        <mxCell id="tUD2QYdTVGgYaHRp5bcU-129" value="create_by" style="shape=partialRectangle;connectable=0;fillColor=none;top=0;left=0;bottom=0;right=0;align=left;spacingLeft=6;overflow=hidden;whiteSpace=wrap;html=1;" vertex="1" parent="tUD2QYdTVGgYaHRp5bcU-127">
          <mxGeometry x="148.41668701171875" width="131.58331298828125" height="29" as="geometry">
            <mxRectangle width="131.58331298828125" height="29" as="alternateBounds" />
          </mxGeometry>
        </mxCell>
        <mxCell id="tUD2QYdTVGgYaHRp5bcU-130" style="shape=tableRow;horizontal=0;startSize=0;swimlaneHead=0;swimlaneBody=0;fillColor=none;collapsible=0;dropTarget=0;points=[[0,0.5],[1,0.5]];portConstraint=eastwest;top=0;left=0;right=0;bottom=0;" vertex="1" parent="tUD2QYdTVGgYaHRp5bcU-81">
          <mxGeometry y="496" width="280" height="29" as="geometry" />
        </mxCell>
        <mxCell id="tUD2QYdTVGgYaHRp5bcU-131" value="创建时间" style="shape=partialRectangle;connectable=0;fillColor=none;top=0;left=0;bottom=0;right=0;editable=1;overflow=hidden;whiteSpace=wrap;html=1;" vertex="1" parent="tUD2QYdTVGgYaHRp5bcU-130">
          <mxGeometry width="148.41668701171875" height="29" as="geometry">
            <mxRectangle width="148.41668701171875" height="29" as="alternateBounds" />
          </mxGeometry>
        </mxCell>
        <mxCell id="tUD2QYdTVGgYaHRp5bcU-132" value="create_date" style="shape=partialRectangle;connectable=0;fillColor=none;top=0;left=0;bottom=0;right=0;align=left;spacingLeft=6;overflow=hidden;whiteSpace=wrap;html=1;" vertex="1" parent="tUD2QYdTVGgYaHRp5bcU-130">
          <mxGeometry x="148.41668701171875" width="131.58331298828125" height="29" as="geometry">
            <mxRectangle width="131.58331298828125" height="29" as="alternateBounds" />
          </mxGeometry>
        </mxCell>
        <mxCell id="tUD2QYdTVGgYaHRp5bcU-133" style="shape=tableRow;horizontal=0;startSize=0;swimlaneHead=0;swimlaneBody=0;fillColor=none;collapsible=0;dropTarget=0;points=[[0,0.5],[1,0.5]];portConstraint=eastwest;top=0;left=0;right=0;bottom=0;" vertex="1" parent="tUD2QYdTVGgYaHRp5bcU-81">
          <mxGeometry y="525" width="280" height="29" as="geometry" />
        </mxCell>
        <mxCell id="tUD2QYdTVGgYaHRp5bcU-134" value="更新者" style="shape=partialRectangle;connectable=0;fillColor=none;top=0;left=0;bottom=0;right=0;editable=1;overflow=hidden;whiteSpace=wrap;html=1;" vertex="1" parent="tUD2QYdTVGgYaHRp5bcU-133">
          <mxGeometry width="148.41668701171875" height="29" as="geometry">
            <mxRectangle width="148.41668701171875" height="29" as="alternateBounds" />
          </mxGeometry>
        </mxCell>
        <mxCell id="tUD2QYdTVGgYaHRp5bcU-135" value="update_by" style="shape=partialRectangle;connectable=0;fillColor=none;top=0;left=0;bottom=0;right=0;align=left;spacingLeft=6;overflow=hidden;whiteSpace=wrap;html=1;" vertex="1" parent="tUD2QYdTVGgYaHRp5bcU-133">
          <mxGeometry x="148.41668701171875" width="131.58331298828125" height="29" as="geometry">
            <mxRectangle width="131.58331298828125" height="29" as="alternateBounds" />
          </mxGeometry>
        </mxCell>
        <mxCell id="tUD2QYdTVGgYaHRp5bcU-136" style="shape=tableRow;horizontal=0;startSize=0;swimlaneHead=0;swimlaneBody=0;fillColor=none;collapsible=0;dropTarget=0;points=[[0,0.5],[1,0.5]];portConstraint=eastwest;top=0;left=0;right=0;bottom=0;" vertex="1" parent="tUD2QYdTVGgYaHRp5bcU-81">
          <mxGeometry y="554" width="280" height="29" as="geometry" />
        </mxCell>
        <mxCell id="tUD2QYdTVGgYaHRp5bcU-137" value="更新时间" style="shape=partialRectangle;connectable=0;fillColor=none;top=0;left=0;bottom=0;right=0;editable=1;overflow=hidden;whiteSpace=wrap;html=1;" vertex="1" parent="tUD2QYdTVGgYaHRp5bcU-136">
          <mxGeometry width="148.41668701171875" height="29" as="geometry">
            <mxRectangle width="148.41668701171875" height="29" as="alternateBounds" />
          </mxGeometry>
        </mxCell>
        <mxCell id="tUD2QYdTVGgYaHRp5bcU-138" value="update_date" style="shape=partialRectangle;connectable=0;fillColor=none;top=0;left=0;bottom=0;right=0;align=left;spacingLeft=6;overflow=hidden;whiteSpace=wrap;html=1;" vertex="1" parent="tUD2QYdTVGgYaHRp5bcU-136">
          <mxGeometry x="148.41668701171875" width="131.58331298828125" height="29" as="geometry">
            <mxRectangle width="131.58331298828125" height="29" as="alternateBounds" />
          </mxGeometry>
        </mxCell>
        <mxCell id="tUD2QYdTVGgYaHRp5bcU-139" style="shape=tableRow;horizontal=0;startSize=0;swimlaneHead=0;swimlaneBody=0;fillColor=none;collapsible=0;dropTarget=0;points=[[0,0.5],[1,0.5]];portConstraint=eastwest;top=0;left=0;right=0;bottom=0;" vertex="1" parent="tUD2QYdTVGgYaHRp5bcU-81">
          <mxGeometry y="583" width="280" height="29" as="geometry" />
        </mxCell>
        <mxCell id="tUD2QYdTVGgYaHRp5bcU-140" value="是否结束" style="shape=partialRectangle;connectable=0;fillColor=none;top=0;left=0;bottom=0;right=0;editable=1;overflow=hidden;whiteSpace=wrap;html=1;" vertex="1" parent="tUD2QYdTVGgYaHRp5bcU-139">
          <mxGeometry width="148.41668701171875" height="29" as="geometry">
            <mxRectangle width="148.41668701171875" height="29" as="alternateBounds" />
          </mxGeometry>
        </mxCell>
        <mxCell id="tUD2QYdTVGgYaHRp5bcU-141" value="is_over" style="shape=partialRectangle;connectable=0;fillColor=none;top=0;left=0;bottom=0;right=0;align=left;spacingLeft=6;overflow=hidden;whiteSpace=wrap;html=1;" vertex="1" parent="tUD2QYdTVGgYaHRp5bcU-139">
          <mxGeometry x="148.41668701171875" width="131.58331298828125" height="29" as="geometry">
            <mxRectangle width="131.58331298828125" height="29" as="alternateBounds" />
          </mxGeometry>
        </mxCell>
        <mxCell id="tUD2QYdTVGgYaHRp5bcU-142" style="shape=tableRow;horizontal=0;startSize=0;swimlaneHead=0;swimlaneBody=0;fillColor=none;collapsible=0;dropTarget=0;points=[[0,0.5],[1,0.5]];portConstraint=eastwest;top=0;left=0;right=0;bottom=0;" vertex="1" parent="tUD2QYdTVGgYaHRp5bcU-81">
          <mxGeometry y="612" width="280" height="32" as="geometry" />
        </mxCell>
        <mxCell id="tUD2QYdTVGgYaHRp5bcU-143" value="订单数" style="shape=partialRectangle;connectable=0;fillColor=none;top=0;left=0;bottom=0;right=0;editable=1;overflow=hidden;whiteSpace=wrap;html=1;" vertex="1" parent="tUD2QYdTVGgYaHRp5bcU-142">
          <mxGeometry width="148.41668701171875" height="32" as="geometry">
            <mxRectangle width="148.41668701171875" height="32" as="alternateBounds" />
          </mxGeometry>
        </mxCell>
        <mxCell id="tUD2QYdTVGgYaHRp5bcU-144" value="finance_num" style="shape=partialRectangle;connectable=0;fillColor=none;top=0;left=0;bottom=0;right=0;align=left;spacingLeft=6;overflow=hidden;whiteSpace=wrap;html=1;" vertex="1" parent="tUD2QYdTVGgYaHRp5bcU-142">
          <mxGeometry x="148.41668701171875" width="131.58331298828125" height="32" as="geometry">
            <mxRectangle width="131.58331298828125" height="32" as="alternateBounds" />
          </mxGeometry>
        </mxCell>
        <mxCell id="tUD2QYdTVGgYaHRp5bcU-145" style="shape=tableRow;horizontal=0;startSize=0;swimlaneHead=0;swimlaneBody=0;fillColor=none;collapsible=0;dropTarget=0;points=[[0,0.5],[1,0.5]];portConstraint=eastwest;top=0;left=0;right=0;bottom=0;" vertex="1" parent="tUD2QYdTVGgYaHRp5bcU-81">
          <mxGeometry y="644" width="280" height="32" as="geometry" />
        </mxCell>
        <mxCell id="tUD2QYdTVGgYaHRp5bcU-146" value="客户性质(药店/药企)" style="shape=partialRectangle;connectable=0;fillColor=none;top=0;left=0;bottom=0;right=0;editable=1;overflow=hidden;whiteSpace=wrap;html=1;" vertex="1" parent="tUD2QYdTVGgYaHRp5bcU-145">
          <mxGeometry width="148.41668701171875" height="32" as="geometry">
            <mxRectangle width="148.41668701171875" height="32" as="alternateBounds" />
          </mxGeometry>
        </mxCell>
        <mxCell id="tUD2QYdTVGgYaHRp5bcU-147" value="type" style="shape=partialRectangle;connectable=0;fillColor=none;top=0;left=0;bottom=0;right=0;align=left;spacingLeft=6;overflow=hidden;whiteSpace=wrap;html=1;" vertex="1" parent="tUD2QYdTVGgYaHRp5bcU-145">
          <mxGeometry x="148.41668701171875" width="131.58331298828125" height="32" as="geometry">
            <mxRectangle width="131.58331298828125" height="32" as="alternateBounds" />
          </mxGeometry>
        </mxCell>
        <mxCell id="tUD2QYdTVGgYaHRp5bcU-148" style="shape=tableRow;horizontal=0;startSize=0;swimlaneHead=0;swimlaneBody=0;fillColor=none;collapsible=0;dropTarget=0;points=[[0,0.5],[1,0.5]];portConstraint=eastwest;top=0;left=0;right=0;bottom=0;" vertex="1" parent="tUD2QYdTVGgYaHRp5bcU-81">
          <mxGeometry y="676" width="280" height="42" as="geometry" />
        </mxCell>
        <mxCell id="tUD2QYdTVGgYaHRp5bcU-149" value="药企id" style="shape=partialRectangle;connectable=0;fillColor=none;top=0;left=0;bottom=0;right=0;editable=1;overflow=hidden;whiteSpace=wrap;html=1;" vertex="1" parent="tUD2QYdTVGgYaHRp5bcU-148">
          <mxGeometry width="148.41668701171875" height="42" as="geometry">
            <mxRectangle width="148.41668701171875" height="42" as="alternateBounds" />
          </mxGeometry>
        </mxCell>
        <mxCell id="tUD2QYdTVGgYaHRp5bcU-150" value="enterprise_id" style="shape=partialRectangle;connectable=0;fillColor=none;top=0;left=0;bottom=0;right=0;align=left;spacingLeft=6;overflow=hidden;whiteSpace=wrap;html=1;" vertex="1" parent="tUD2QYdTVGgYaHRp5bcU-148">
          <mxGeometry x="148.41668701171875" width="131.58331298828125" height="42" as="geometry">
            <mxRectangle width="131.58331298828125" height="42" as="alternateBounds" />
          </mxGeometry>
        </mxCell>
        <mxCell id="tUD2QYdTVGgYaHRp5bcU-151" value="t_must_receipt - 应收款单" style="shape=table;startSize=30;container=1;collapsible=1;childLayout=tableLayout;fixedRows=1;rowLines=0;fontStyle=1;align=center;resizeLast=1;html=1;" vertex="1" parent="1">
          <mxGeometry x="550" y="66" width="268.08331298828125" height="596" as="geometry" />
        </mxCell>
        <mxCell id="tUD2QYdTVGgYaHRp5bcU-152" value="" style="shape=tableRow;horizontal=0;startSize=0;swimlaneHead=0;swimlaneBody=0;fillColor=none;collapsible=0;dropTarget=0;points=[[0,0.5],[1,0.5]];portConstraint=eastwest;top=0;left=0;right=0;bottom=1;" vertex="1" parent="tUD2QYdTVGgYaHRp5bcU-151">
          <mxGeometry y="30" width="268.08331298828125" height="30" as="geometry" />
        </mxCell>
        <mxCell id="tUD2QYdTVGgYaHRp5bcU-153" value="PK" style="shape=partialRectangle;connectable=0;fillColor=none;top=0;left=0;bottom=0;right=0;fontStyle=1;overflow=hidden;whiteSpace=wrap;html=1;" vertex="1" parent="tUD2QYdTVGgYaHRp5bcU-152">
          <mxGeometry width="128.08331298828125" height="30" as="geometry">
            <mxRectangle width="128.08331298828125" height="30" as="alternateBounds" />
          </mxGeometry>
        </mxCell>
        <mxCell id="tUD2QYdTVGgYaHRp5bcU-154" value="id" style="shape=partialRectangle;connectable=0;fillColor=none;top=0;left=0;bottom=0;right=0;align=left;spacingLeft=6;fontStyle=5;overflow=hidden;whiteSpace=wrap;html=1;" vertex="1" parent="tUD2QYdTVGgYaHRp5bcU-152">
          <mxGeometry x="128.08331298828125" width="140" height="30" as="geometry">
            <mxRectangle width="140" height="30" as="alternateBounds" />
          </mxGeometry>
        </mxCell>
        <mxCell id="tUD2QYdTVGgYaHRp5bcU-155" value="" style="shape=tableRow;horizontal=0;startSize=0;swimlaneHead=0;swimlaneBody=0;fillColor=none;collapsible=0;dropTarget=0;points=[[0,0.5],[1,0.5]];portConstraint=eastwest;top=0;left=0;right=0;bottom=0;" vertex="1" parent="tUD2QYdTVGgYaHRp5bcU-151">
          <mxGeometry y="60" width="268.08331298828125" height="30" as="geometry" />
        </mxCell>
        <mxCell id="tUD2QYdTVGgYaHRp5bcU-156" value="应收款单号" style="shape=partialRectangle;connectable=0;fillColor=none;top=0;left=0;bottom=0;right=0;editable=1;overflow=hidden;whiteSpace=wrap;html=1;" vertex="1" parent="tUD2QYdTVGgYaHRp5bcU-155">
          <mxGeometry width="128.08331298828125" height="30" as="geometry">
            <mxRectangle width="128.08331298828125" height="30" as="alternateBounds" />
          </mxGeometry>
        </mxCell>
        <mxCell id="tUD2QYdTVGgYaHRp5bcU-157" value="must_receipt_code" style="shape=partialRectangle;connectable=0;fillColor=none;top=0;left=0;bottom=0;right=0;align=left;spacingLeft=6;overflow=hidden;whiteSpace=wrap;html=1;" vertex="1" parent="tUD2QYdTVGgYaHRp5bcU-155">
          <mxGeometry x="128.08331298828125" width="140" height="30" as="geometry">
            <mxRectangle width="140" height="30" as="alternateBounds" />
          </mxGeometry>
        </mxCell>
        <mxCell id="tUD2QYdTVGgYaHRp5bcU-158" value="" style="shape=tableRow;horizontal=0;startSize=0;swimlaneHead=0;swimlaneBody=0;fillColor=none;collapsible=0;dropTarget=0;points=[[0,0.5],[1,0.5]];portConstraint=eastwest;top=0;left=0;right=0;bottom=0;" vertex="1" parent="tUD2QYdTVGgYaHRp5bcU-151">
          <mxGeometry y="90" width="268.08331298828125" height="30" as="geometry" />
        </mxCell>
        <mxCell id="tUD2QYdTVGgYaHRp5bcU-159" value="客户id" style="shape=partialRectangle;connectable=0;fillColor=none;top=0;left=0;bottom=0;right=0;editable=1;overflow=hidden;whiteSpace=wrap;html=1;" vertex="1" parent="tUD2QYdTVGgYaHRp5bcU-158">
          <mxGeometry width="128.08331298828125" height="30" as="geometry">
            <mxRectangle width="128.08331298828125" height="30" as="alternateBounds" />
          </mxGeometry>
        </mxCell>
        <mxCell id="tUD2QYdTVGgYaHRp5bcU-160" value="dp_id" style="shape=partialRectangle;connectable=0;fillColor=none;top=0;left=0;bottom=0;right=0;align=left;spacingLeft=6;overflow=hidden;whiteSpace=wrap;html=1;" vertex="1" parent="tUD2QYdTVGgYaHRp5bcU-158">
          <mxGeometry x="128.08331298828125" width="140" height="30" as="geometry">
            <mxRectangle width="140" height="30" as="alternateBounds" />
          </mxGeometry>
        </mxCell>
        <mxCell id="tUD2QYdTVGgYaHRp5bcU-161" value="" style="shape=tableRow;horizontal=0;startSize=0;swimlaneHead=0;swimlaneBody=0;fillColor=none;collapsible=0;dropTarget=0;points=[[0,0.5],[1,0.5]];portConstraint=eastwest;top=0;left=0;right=0;bottom=0;" vertex="1" parent="tUD2QYdTVGgYaHRp5bcU-151">
          <mxGeometry y="120" width="268.08331298828125" height="30" as="geometry" />
        </mxCell>
        <mxCell id="tUD2QYdTVGgYaHRp5bcU-162" value="应收款金额" style="shape=partialRectangle;connectable=0;fillColor=none;top=0;left=0;bottom=0;right=0;editable=1;overflow=hidden;whiteSpace=wrap;html=1;" vertex="1" parent="tUD2QYdTVGgYaHRp5bcU-161">
          <mxGeometry width="128.08331298828125" height="30" as="geometry">
            <mxRectangle width="128.08331298828125" height="30" as="alternateBounds" />
          </mxGeometry>
        </mxCell>
        <mxCell id="tUD2QYdTVGgYaHRp5bcU-163" value="must_receipt_amount" style="shape=partialRectangle;connectable=0;fillColor=none;top=0;left=0;bottom=0;right=0;align=left;spacingLeft=6;overflow=hidden;whiteSpace=wrap;html=1;" vertex="1" parent="tUD2QYdTVGgYaHRp5bcU-161">
          <mxGeometry x="128.08331298828125" width="140" height="30" as="geometry">
            <mxRectangle width="140" height="30" as="alternateBounds" />
          </mxGeometry>
        </mxCell>
        <mxCell id="tUD2QYdTVGgYaHRp5bcU-164" style="shape=tableRow;horizontal=0;startSize=0;swimlaneHead=0;swimlaneBody=0;fillColor=none;collapsible=0;dropTarget=0;points=[[0,0.5],[1,0.5]];portConstraint=eastwest;top=0;left=0;right=0;bottom=0;" vertex="1" parent="tUD2QYdTVGgYaHRp5bcU-151">
          <mxGeometry y="150" width="268.08331298828125" height="30" as="geometry" />
        </mxCell>
        <mxCell id="tUD2QYdTVGgYaHRp5bcU-165" value="已收款金额" style="shape=partialRectangle;connectable=0;fillColor=none;top=0;left=0;bottom=0;right=0;editable=1;overflow=hidden;whiteSpace=wrap;html=1;" vertex="1" parent="tUD2QYdTVGgYaHRp5bcU-164">
          <mxGeometry width="128.08331298828125" height="30" as="geometry">
            <mxRectangle width="128.08331298828125" height="30" as="alternateBounds" />
          </mxGeometry>
        </mxCell>
        <mxCell id="tUD2QYdTVGgYaHRp5bcU-166" value="receipt_amount" style="shape=partialRectangle;connectable=0;fillColor=none;top=0;left=0;bottom=0;right=0;align=left;spacingLeft=6;overflow=hidden;whiteSpace=wrap;html=1;" vertex="1" parent="tUD2QYdTVGgYaHRp5bcU-164">
          <mxGeometry x="128.08331298828125" width="140" height="30" as="geometry">
            <mxRectangle width="140" height="30" as="alternateBounds" />
          </mxGeometry>
        </mxCell>
        <mxCell id="tUD2QYdTVGgYaHRp5bcU-167" style="shape=tableRow;horizontal=0;startSize=0;swimlaneHead=0;swimlaneBody=0;fillColor=none;collapsible=0;dropTarget=0;points=[[0,0.5],[1,0.5]];portConstraint=eastwest;top=0;left=0;right=0;bottom=0;" vertex="1" parent="tUD2QYdTVGgYaHRp5bcU-151">
          <mxGeometry y="180" width="268.08331298828125" height="30" as="geometry" />
        </mxCell>
        <mxCell id="tUD2QYdTVGgYaHRp5bcU-168" value="使用金额" style="shape=partialRectangle;connectable=0;fillColor=none;top=0;left=0;bottom=0;right=0;editable=1;overflow=hidden;whiteSpace=wrap;html=1;" vertex="1" parent="tUD2QYdTVGgYaHRp5bcU-167">
          <mxGeometry width="128.08331298828125" height="30" as="geometry">
            <mxRectangle width="128.08331298828125" height="30" as="alternateBounds" />
          </mxGeometry>
        </mxCell>
        <mxCell id="tUD2QYdTVGgYaHRp5bcU-169" value="use_amount" style="shape=partialRectangle;connectable=0;fillColor=none;top=0;left=0;bottom=0;right=0;align=left;spacingLeft=6;overflow=hidden;whiteSpace=wrap;html=1;" vertex="1" parent="tUD2QYdTVGgYaHRp5bcU-167">
          <mxGeometry x="128.08331298828125" width="140" height="30" as="geometry">
            <mxRectangle width="140" height="30" as="alternateBounds" />
          </mxGeometry>
        </mxCell>
        <mxCell id="tUD2QYdTVGgYaHRp5bcU-170" style="shape=tableRow;horizontal=0;startSize=0;swimlaneHead=0;swimlaneBody=0;fillColor=none;collapsible=0;dropTarget=0;points=[[0,0.5],[1,0.5]];portConstraint=eastwest;top=0;left=0;right=0;bottom=0;" vertex="1" parent="tUD2QYdTVGgYaHRp5bcU-151">
          <mxGeometry y="210" width="268.08331298828125" height="30" as="geometry" />
        </mxCell>
        <mxCell id="tUD2QYdTVGgYaHRp5bcU-171" value="联系人" style="shape=partialRectangle;connectable=0;fillColor=none;top=0;left=0;bottom=0;right=0;editable=1;overflow=hidden;whiteSpace=wrap;html=1;" vertex="1" parent="tUD2QYdTVGgYaHRp5bcU-170">
          <mxGeometry width="128.08331298828125" height="30" as="geometry">
            <mxRectangle width="128.08331298828125" height="30" as="alternateBounds" />
          </mxGeometry>
        </mxCell>
        <mxCell id="tUD2QYdTVGgYaHRp5bcU-172" value="link_name" style="shape=partialRectangle;connectable=0;fillColor=none;top=0;left=0;bottom=0;right=0;align=left;spacingLeft=6;overflow=hidden;whiteSpace=wrap;html=1;" vertex="1" parent="tUD2QYdTVGgYaHRp5bcU-170">
          <mxGeometry x="128.08331298828125" width="140" height="30" as="geometry">
            <mxRectangle width="140" height="30" as="alternateBounds" />
          </mxGeometry>
        </mxCell>
        <mxCell id="tUD2QYdTVGgYaHRp5bcU-173" style="shape=tableRow;horizontal=0;startSize=0;swimlaneHead=0;swimlaneBody=0;fillColor=none;collapsible=0;dropTarget=0;points=[[0,0.5],[1,0.5]];portConstraint=eastwest;top=0;left=0;right=0;bottom=0;" vertex="1" parent="tUD2QYdTVGgYaHRp5bcU-151">
          <mxGeometry y="240" width="268.08331298828125" height="30" as="geometry" />
        </mxCell>
        <mxCell id="tUD2QYdTVGgYaHRp5bcU-174" value="状态" style="shape=partialRectangle;connectable=0;fillColor=none;top=0;left=0;bottom=0;right=0;editable=1;overflow=hidden;whiteSpace=wrap;html=1;" vertex="1" parent="tUD2QYdTVGgYaHRp5bcU-173">
          <mxGeometry width="128.08331298828125" height="30" as="geometry">
            <mxRectangle width="128.08331298828125" height="30" as="alternateBounds" />
          </mxGeometry>
        </mxCell>
        <mxCell id="tUD2QYdTVGgYaHRp5bcU-175" value="must_receipt_status" style="shape=partialRectangle;connectable=0;fillColor=none;top=0;left=0;bottom=0;right=0;align=left;spacingLeft=6;overflow=hidden;whiteSpace=wrap;html=1;" vertex="1" parent="tUD2QYdTVGgYaHRp5bcU-173">
          <mxGeometry x="128.08331298828125" width="140" height="30" as="geometry">
            <mxRectangle width="140" height="30" as="alternateBounds" />
          </mxGeometry>
        </mxCell>
        <mxCell id="tUD2QYdTVGgYaHRp5bcU-176" style="shape=tableRow;horizontal=0;startSize=0;swimlaneHead=0;swimlaneBody=0;fillColor=none;collapsible=0;dropTarget=0;points=[[0,0.5],[1,0.5]];portConstraint=eastwest;top=0;left=0;right=0;bottom=0;" vertex="1" parent="tUD2QYdTVGgYaHRp5bcU-151">
          <mxGeometry y="270" width="268.08331298828125" height="30" as="geometry" />
        </mxCell>
        <mxCell id="tUD2QYdTVGgYaHRp5bcU-177" value="删除标志" style="shape=partialRectangle;connectable=0;fillColor=none;top=0;left=0;bottom=0;right=0;editable=1;overflow=hidden;whiteSpace=wrap;html=1;" vertex="1" parent="tUD2QYdTVGgYaHRp5bcU-176">
          <mxGeometry width="128.08331298828125" height="30" as="geometry">
            <mxRectangle width="128.08331298828125" height="30" as="alternateBounds" />
          </mxGeometry>
        </mxCell>
        <mxCell id="tUD2QYdTVGgYaHRp5bcU-178" value="del_flag" style="shape=partialRectangle;connectable=0;fillColor=none;top=0;left=0;bottom=0;right=0;align=left;spacingLeft=6;overflow=hidden;whiteSpace=wrap;html=1;" vertex="1" parent="tUD2QYdTVGgYaHRp5bcU-176">
          <mxGeometry x="128.08331298828125" width="140" height="30" as="geometry">
            <mxRectangle width="140" height="30" as="alternateBounds" />
          </mxGeometry>
        </mxCell>
        <mxCell id="tUD2QYdTVGgYaHRp5bcU-179" style="shape=tableRow;horizontal=0;startSize=0;swimlaneHead=0;swimlaneBody=0;fillColor=none;collapsible=0;dropTarget=0;points=[[0,0.5],[1,0.5]];portConstraint=eastwest;top=0;left=0;right=0;bottom=0;" vertex="1" parent="tUD2QYdTVGgYaHRp5bcU-151">
          <mxGeometry y="300" width="268.08331298828125" height="30" as="geometry" />
        </mxCell>
        <mxCell id="tUD2QYdTVGgYaHRp5bcU-180" value="备注信息" style="shape=partialRectangle;connectable=0;fillColor=none;top=0;left=0;bottom=0;right=0;editable=1;overflow=hidden;whiteSpace=wrap;html=1;" vertex="1" parent="tUD2QYdTVGgYaHRp5bcU-179">
          <mxGeometry width="128.08331298828125" height="30" as="geometry">
            <mxRectangle width="128.08331298828125" height="30" as="alternateBounds" />
          </mxGeometry>
        </mxCell>
        <mxCell id="tUD2QYdTVGgYaHRp5bcU-181" value="remarks" style="shape=partialRectangle;connectable=0;fillColor=none;top=0;left=0;bottom=0;right=0;align=left;spacingLeft=6;overflow=hidden;whiteSpace=wrap;html=1;" vertex="1" parent="tUD2QYdTVGgYaHRp5bcU-179">
          <mxGeometry x="128.08331298828125" width="140" height="30" as="geometry">
            <mxRectangle width="140" height="30" as="alternateBounds" />
          </mxGeometry>
        </mxCell>
        <mxCell id="tUD2QYdTVGgYaHRp5bcU-182" style="shape=tableRow;horizontal=0;startSize=0;swimlaneHead=0;swimlaneBody=0;fillColor=none;collapsible=0;dropTarget=0;points=[[0,0.5],[1,0.5]];portConstraint=eastwest;top=0;left=0;right=0;bottom=0;" vertex="1" parent="tUD2QYdTVGgYaHRp5bcU-151">
          <mxGeometry y="330" width="268.08331298828125" height="30" as="geometry" />
        </mxCell>
        <mxCell id="tUD2QYdTVGgYaHRp5bcU-183" value="创建人" style="shape=partialRectangle;connectable=0;fillColor=none;top=0;left=0;bottom=0;right=0;editable=1;overflow=hidden;whiteSpace=wrap;html=1;" vertex="1" parent="tUD2QYdTVGgYaHRp5bcU-182">
          <mxGeometry width="128.08331298828125" height="30" as="geometry">
            <mxRectangle width="128.08331298828125" height="30" as="alternateBounds" />
          </mxGeometry>
        </mxCell>
        <mxCell id="tUD2QYdTVGgYaHRp5bcU-184" value="create_by" style="shape=partialRectangle;connectable=0;fillColor=none;top=0;left=0;bottom=0;right=0;align=left;spacingLeft=6;overflow=hidden;whiteSpace=wrap;html=1;" vertex="1" parent="tUD2QYdTVGgYaHRp5bcU-182">
          <mxGeometry x="128.08331298828125" width="140" height="30" as="geometry">
            <mxRectangle width="140" height="30" as="alternateBounds" />
          </mxGeometry>
        </mxCell>
        <mxCell id="tUD2QYdTVGgYaHRp5bcU-185" style="shape=tableRow;horizontal=0;startSize=0;swimlaneHead=0;swimlaneBody=0;fillColor=none;collapsible=0;dropTarget=0;points=[[0,0.5],[1,0.5]];portConstraint=eastwest;top=0;left=0;right=0;bottom=0;" vertex="1" parent="tUD2QYdTVGgYaHRp5bcU-151">
          <mxGeometry y="360" width="268.08331298828125" height="30" as="geometry" />
        </mxCell>
        <mxCell id="tUD2QYdTVGgYaHRp5bcU-186" value="创建时间" style="shape=partialRectangle;connectable=0;fillColor=none;top=0;left=0;bottom=0;right=0;editable=1;overflow=hidden;whiteSpace=wrap;html=1;" vertex="1" parent="tUD2QYdTVGgYaHRp5bcU-185">
          <mxGeometry width="128.08331298828125" height="30" as="geometry">
            <mxRectangle width="128.08331298828125" height="30" as="alternateBounds" />
          </mxGeometry>
        </mxCell>
        <mxCell id="tUD2QYdTVGgYaHRp5bcU-187" value="create_date" style="shape=partialRectangle;connectable=0;fillColor=none;top=0;left=0;bottom=0;right=0;align=left;spacingLeft=6;overflow=hidden;whiteSpace=wrap;html=1;" vertex="1" parent="tUD2QYdTVGgYaHRp5bcU-185">
          <mxGeometry x="128.08331298828125" width="140" height="30" as="geometry">
            <mxRectangle width="140" height="30" as="alternateBounds" />
          </mxGeometry>
        </mxCell>
        <mxCell id="tUD2QYdTVGgYaHRp5bcU-188" style="shape=tableRow;horizontal=0;startSize=0;swimlaneHead=0;swimlaneBody=0;fillColor=none;collapsible=0;dropTarget=0;points=[[0,0.5],[1,0.5]];portConstraint=eastwest;top=0;left=0;right=0;bottom=0;" vertex="1" parent="tUD2QYdTVGgYaHRp5bcU-151">
          <mxGeometry y="390" width="268.08331298828125" height="30" as="geometry" />
        </mxCell>
        <mxCell id="tUD2QYdTVGgYaHRp5bcU-189" value="更新者" style="shape=partialRectangle;connectable=0;fillColor=none;top=0;left=0;bottom=0;right=0;editable=1;overflow=hidden;whiteSpace=wrap;html=1;" vertex="1" parent="tUD2QYdTVGgYaHRp5bcU-188">
          <mxGeometry width="128.08331298828125" height="30" as="geometry">
            <mxRectangle width="128.08331298828125" height="30" as="alternateBounds" />
          </mxGeometry>
        </mxCell>
        <mxCell id="tUD2QYdTVGgYaHRp5bcU-190" value="update_by" style="shape=partialRectangle;connectable=0;fillColor=none;top=0;left=0;bottom=0;right=0;align=left;spacingLeft=6;overflow=hidden;whiteSpace=wrap;html=1;" vertex="1" parent="tUD2QYdTVGgYaHRp5bcU-188">
          <mxGeometry x="128.08331298828125" width="140" height="30" as="geometry">
            <mxRectangle width="140" height="30" as="alternateBounds" />
          </mxGeometry>
        </mxCell>
        <mxCell id="tUD2QYdTVGgYaHRp5bcU-191" style="shape=tableRow;horizontal=0;startSize=0;swimlaneHead=0;swimlaneBody=0;fillColor=none;collapsible=0;dropTarget=0;points=[[0,0.5],[1,0.5]];portConstraint=eastwest;top=0;left=0;right=0;bottom=0;" vertex="1" parent="tUD2QYdTVGgYaHRp5bcU-151">
          <mxGeometry y="420" width="268.08331298828125" height="30" as="geometry" />
        </mxCell>
        <mxCell id="tUD2QYdTVGgYaHRp5bcU-192" value="更新时间" style="shape=partialRectangle;connectable=0;fillColor=none;top=0;left=0;bottom=0;right=0;editable=1;overflow=hidden;whiteSpace=wrap;html=1;" vertex="1" parent="tUD2QYdTVGgYaHRp5bcU-191">
          <mxGeometry width="128.08331298828125" height="30" as="geometry">
            <mxRectangle width="128.08331298828125" height="30" as="alternateBounds" />
          </mxGeometry>
        </mxCell>
        <mxCell id="tUD2QYdTVGgYaHRp5bcU-193" value="update_date" style="shape=partialRectangle;connectable=0;fillColor=none;top=0;left=0;bottom=0;right=0;align=left;spacingLeft=6;overflow=hidden;whiteSpace=wrap;html=1;" vertex="1" parent="tUD2QYdTVGgYaHRp5bcU-191">
          <mxGeometry x="128.08331298828125" width="140" height="30" as="geometry">
            <mxRectangle width="140" height="30" as="alternateBounds" />
          </mxGeometry>
        </mxCell>
        <mxCell id="tUD2QYdTVGgYaHRp5bcU-194" style="shape=tableRow;horizontal=0;startSize=0;swimlaneHead=0;swimlaneBody=0;fillColor=none;collapsible=0;dropTarget=0;points=[[0,0.5],[1,0.5]];portConstraint=eastwest;top=0;left=0;right=0;bottom=0;" vertex="1" parent="tUD2QYdTVGgYaHRp5bcU-151">
          <mxGeometry y="450" width="268.08331298828125" height="30" as="geometry" />
        </mxCell>
        <mxCell id="tUD2QYdTVGgYaHRp5bcU-195" value="是否结束" style="shape=partialRectangle;connectable=0;fillColor=none;top=0;left=0;bottom=0;right=0;editable=1;overflow=hidden;whiteSpace=wrap;html=1;" vertex="1" parent="tUD2QYdTVGgYaHRp5bcU-194">
          <mxGeometry width="128.08331298828125" height="30" as="geometry">
            <mxRectangle width="128.08331298828125" height="30" as="alternateBounds" />
          </mxGeometry>
        </mxCell>
        <mxCell id="tUD2QYdTVGgYaHRp5bcU-196" value="is_over" style="shape=partialRectangle;connectable=0;fillColor=none;top=0;left=0;bottom=0;right=0;align=left;spacingLeft=6;overflow=hidden;whiteSpace=wrap;html=1;" vertex="1" parent="tUD2QYdTVGgYaHRp5bcU-194">
          <mxGeometry x="128.08331298828125" width="140" height="30" as="geometry">
            <mxRectangle width="140" height="30" as="alternateBounds" />
          </mxGeometry>
        </mxCell>
        <mxCell id="tUD2QYdTVGgYaHRp5bcU-197" style="shape=tableRow;horizontal=0;startSize=0;swimlaneHead=0;swimlaneBody=0;fillColor=none;collapsible=0;dropTarget=0;points=[[0,0.5],[1,0.5]];portConstraint=eastwest;top=0;left=0;right=0;bottom=0;" vertex="1" parent="tUD2QYdTVGgYaHRp5bcU-151">
          <mxGeometry y="480" width="268.08331298828125" height="30" as="geometry" />
        </mxCell>
        <mxCell id="tUD2QYdTVGgYaHRp5bcU-198" value="订单数" style="shape=partialRectangle;connectable=0;fillColor=none;top=0;left=0;bottom=0;right=0;editable=1;overflow=hidden;whiteSpace=wrap;html=1;" vertex="1" parent="tUD2QYdTVGgYaHRp5bcU-197">
          <mxGeometry width="128.08331298828125" height="30" as="geometry">
            <mxRectangle width="128.08331298828125" height="30" as="alternateBounds" />
          </mxGeometry>
        </mxCell>
        <mxCell id="tUD2QYdTVGgYaHRp5bcU-199" value="finance_num" style="shape=partialRectangle;connectable=0;fillColor=none;top=0;left=0;bottom=0;right=0;align=left;spacingLeft=6;overflow=hidden;whiteSpace=wrap;html=1;" vertex="1" parent="tUD2QYdTVGgYaHRp5bcU-197">
          <mxGeometry x="128.08331298828125" width="140" height="30" as="geometry">
            <mxRectangle width="140" height="30" as="alternateBounds" />
          </mxGeometry>
        </mxCell>
        <mxCell id="tUD2QYdTVGgYaHRp5bcU-200" style="shape=tableRow;horizontal=0;startSize=0;swimlaneHead=0;swimlaneBody=0;fillColor=none;collapsible=0;dropTarget=0;points=[[0,0.5],[1,0.5]];portConstraint=eastwest;top=0;left=0;right=0;bottom=0;" vertex="1" parent="tUD2QYdTVGgYaHRp5bcU-151">
          <mxGeometry y="510" width="268.08331298828125" height="26" as="geometry" />
        </mxCell>
        <mxCell id="tUD2QYdTVGgYaHRp5bcU-201" value="客户性质" style="shape=partialRectangle;connectable=0;fillColor=none;top=0;left=0;bottom=0;right=0;editable=1;overflow=hidden;whiteSpace=wrap;html=1;" vertex="1" parent="tUD2QYdTVGgYaHRp5bcU-200">
          <mxGeometry width="128.08331298828125" height="26" as="geometry">
            <mxRectangle width="128.08331298828125" height="26" as="alternateBounds" />
          </mxGeometry>
        </mxCell>
        <mxCell id="tUD2QYdTVGgYaHRp5bcU-202" value="type" style="shape=partialRectangle;connectable=0;fillColor=none;top=0;left=0;bottom=0;right=0;align=left;spacingLeft=6;overflow=hidden;whiteSpace=wrap;html=1;" vertex="1" parent="tUD2QYdTVGgYaHRp5bcU-200">
          <mxGeometry x="128.08331298828125" width="140" height="26" as="geometry">
            <mxRectangle width="140" height="26" as="alternateBounds" />
          </mxGeometry>
        </mxCell>
        <mxCell id="tUD2QYdTVGgYaHRp5bcU-203" style="shape=tableRow;horizontal=0;startSize=0;swimlaneHead=0;swimlaneBody=0;fillColor=none;collapsible=0;dropTarget=0;points=[[0,0.5],[1,0.5]];portConstraint=eastwest;top=0;left=0;right=0;bottom=0;" vertex="1" parent="tUD2QYdTVGgYaHRp5bcU-151">
          <mxGeometry y="536" width="268.08331298828125" height="30" as="geometry" />
        </mxCell>
        <mxCell id="tUD2QYdTVGgYaHRp5bcU-204" value="药企id" style="shape=partialRectangle;connectable=0;fillColor=none;top=0;left=0;bottom=0;right=0;editable=1;overflow=hidden;whiteSpace=wrap;html=1;" vertex="1" parent="tUD2QYdTVGgYaHRp5bcU-203">
          <mxGeometry width="128.08331298828125" height="30" as="geometry">
            <mxRectangle width="128.08331298828125" height="30" as="alternateBounds" />
          </mxGeometry>
        </mxCell>
        <mxCell id="tUD2QYdTVGgYaHRp5bcU-205" value="enterprise_id" style="shape=partialRectangle;connectable=0;fillColor=none;top=0;left=0;bottom=0;right=0;align=left;spacingLeft=6;overflow=hidden;whiteSpace=wrap;html=1;" vertex="1" parent="tUD2QYdTVGgYaHRp5bcU-203">
          <mxGeometry x="128.08331298828125" width="140" height="30" as="geometry">
            <mxRectangle width="140" height="30" as="alternateBounds" />
          </mxGeometry>
        </mxCell>
        <mxCell id="tUD2QYdTVGgYaHRp5bcU-206" style="shape=tableRow;horizontal=0;startSize=0;swimlaneHead=0;swimlaneBody=0;fillColor=none;collapsible=0;dropTarget=0;points=[[0,0.5],[1,0.5]];portConstraint=eastwest;top=0;left=0;right=0;bottom=0;" vertex="1" parent="tUD2QYdTVGgYaHRp5bcU-151">
          <mxGeometry y="566" width="268.08331298828125" height="30" as="geometry" />
        </mxCell>
        <mxCell id="tUD2QYdTVGgYaHRp5bcU-207" value="应收款单类型" style="shape=partialRectangle;connectable=0;fillColor=none;top=0;left=0;bottom=0;right=0;editable=1;overflow=hidden;whiteSpace=wrap;html=1;" vertex="1" parent="tUD2QYdTVGgYaHRp5bcU-206">
          <mxGeometry width="128.08331298828125" height="30" as="geometry">
            <mxRectangle width="128.08331298828125" height="30" as="alternateBounds" />
          </mxGeometry>
        </mxCell>
        <mxCell id="tUD2QYdTVGgYaHRp5bcU-208" value="must_receipt_type" style="shape=partialRectangle;connectable=0;fillColor=none;top=0;left=0;bottom=0;right=0;align=left;spacingLeft=6;overflow=hidden;whiteSpace=wrap;html=1;" vertex="1" parent="tUD2QYdTVGgYaHRp5bcU-206">
          <mxGeometry x="128.08331298828125" width="140" height="30" as="geometry">
            <mxRectangle width="140" height="30" as="alternateBounds" />
          </mxGeometry>
        </mxCell>
        <mxCell id="tUD2QYdTVGgYaHRp5bcU-217" value="m" style="text;html=1;align=center;verticalAlign=middle;resizable=0;points=[];autosize=1;strokeColor=none;fillColor=none;" vertex="1" parent="1">
          <mxGeometry x="322" y="372" width="28" height="26" as="geometry" />
        </mxCell>
        <mxCell id="tUD2QYdTVGgYaHRp5bcU-218" value="n" style="text;html=1;align=center;verticalAlign=middle;resizable=0;points=[];autosize=1;strokeColor=none;fillColor=none;" vertex="1" parent="1">
          <mxGeometry x="515" y="372" width="25" height="26" as="geometry" />
        </mxCell>
        <mxCell id="tUD2QYdTVGgYaHRp5bcU-219" value="t_must_receipt_relation" style="shape=table;startSize=30;container=1;collapsible=1;childLayout=tableLayout;fixedRows=1;rowLines=0;fontStyle=1;align=center;resizeLast=1;html=1;" vertex="1" parent="1">
          <mxGeometry x="340" y="55" width="180" height="300" as="geometry" />
        </mxCell>
        <mxCell id="tUD2QYdTVGgYaHRp5bcU-220" value="" style="shape=tableRow;horizontal=0;startSize=0;swimlaneHead=0;swimlaneBody=0;fillColor=none;collapsible=0;dropTarget=0;points=[[0,0.5],[1,0.5]];portConstraint=eastwest;top=0;left=0;right=0;bottom=1;" vertex="1" parent="tUD2QYdTVGgYaHRp5bcU-219">
          <mxGeometry y="30" width="180" height="30" as="geometry" />
        </mxCell>
        <mxCell id="tUD2QYdTVGgYaHRp5bcU-221" value="PK" style="shape=partialRectangle;connectable=0;fillColor=none;top=0;left=0;bottom=0;right=0;fontStyle=1;overflow=hidden;whiteSpace=wrap;html=1;" vertex="1" parent="tUD2QYdTVGgYaHRp5bcU-220">
          <mxGeometry width="53.75" height="30" as="geometry">
            <mxRectangle width="53.75" height="30" as="alternateBounds" />
          </mxGeometry>
        </mxCell>
        <mxCell id="tUD2QYdTVGgYaHRp5bcU-222" value="id" style="shape=partialRectangle;connectable=0;fillColor=none;top=0;left=0;bottom=0;right=0;align=left;spacingLeft=6;fontStyle=5;overflow=hidden;whiteSpace=wrap;html=1;" vertex="1" parent="tUD2QYdTVGgYaHRp5bcU-220">
          <mxGeometry x="53.75" width="126.25" height="30" as="geometry">
            <mxRectangle width="126.25" height="30" as="alternateBounds" />
          </mxGeometry>
        </mxCell>
        <mxCell id="tUD2QYdTVGgYaHRp5bcU-223" value="" style="shape=tableRow;horizontal=0;startSize=0;swimlaneHead=0;swimlaneBody=0;fillColor=none;collapsible=0;dropTarget=0;points=[[0,0.5],[1,0.5]];portConstraint=eastwest;top=0;left=0;right=0;bottom=0;" vertex="1" parent="tUD2QYdTVGgYaHRp5bcU-219">
          <mxGeometry y="60" width="180" height="30" as="geometry" />
        </mxCell>
        <mxCell id="tUD2QYdTVGgYaHRp5bcU-224" value="" style="shape=partialRectangle;connectable=0;fillColor=none;top=0;left=0;bottom=0;right=0;editable=1;overflow=hidden;whiteSpace=wrap;html=1;" vertex="1" parent="tUD2QYdTVGgYaHRp5bcU-223">
          <mxGeometry width="53.75" height="30" as="geometry">
            <mxRectangle width="53.75" height="30" as="alternateBounds" />
          </mxGeometry>
        </mxCell>
        <mxCell id="tUD2QYdTVGgYaHRp5bcU-225" value="must_receipt_code" style="shape=partialRectangle;connectable=0;fillColor=none;top=0;left=0;bottom=0;right=0;align=left;spacingLeft=6;overflow=hidden;whiteSpace=wrap;html=1;" vertex="1" parent="tUD2QYdTVGgYaHRp5bcU-223">
          <mxGeometry x="53.75" width="126.25" height="30" as="geometry">
            <mxRectangle width="126.25" height="30" as="alternateBounds" />
          </mxGeometry>
        </mxCell>
        <mxCell id="tUD2QYdTVGgYaHRp5bcU-226" value="" style="shape=tableRow;horizontal=0;startSize=0;swimlaneHead=0;swimlaneBody=0;fillColor=none;collapsible=0;dropTarget=0;points=[[0,0.5],[1,0.5]];portConstraint=eastwest;top=0;left=0;right=0;bottom=0;" vertex="1" parent="tUD2QYdTVGgYaHRp5bcU-219">
          <mxGeometry y="90" width="180" height="30" as="geometry" />
        </mxCell>
        <mxCell id="tUD2QYdTVGgYaHRp5bcU-227" value="" style="shape=partialRectangle;connectable=0;fillColor=none;top=0;left=0;bottom=0;right=0;editable=1;overflow=hidden;whiteSpace=wrap;html=1;" vertex="1" parent="tUD2QYdTVGgYaHRp5bcU-226">
          <mxGeometry width="53.75" height="30" as="geometry">
            <mxRectangle width="53.75" height="30" as="alternateBounds" />
          </mxGeometry>
        </mxCell>
        <mxCell id="tUD2QYdTVGgYaHRp5bcU-228" value="receipt_code" style="shape=partialRectangle;connectable=0;fillColor=none;top=0;left=0;bottom=0;right=0;align=left;spacingLeft=6;overflow=hidden;whiteSpace=wrap;html=1;" vertex="1" parent="tUD2QYdTVGgYaHRp5bcU-226">
          <mxGeometry x="53.75" width="126.25" height="30" as="geometry">
            <mxRectangle width="126.25" height="30" as="alternateBounds" />
          </mxGeometry>
        </mxCell>
        <mxCell id="tUD2QYdTVGgYaHRp5bcU-229" value="" style="shape=tableRow;horizontal=0;startSize=0;swimlaneHead=0;swimlaneBody=0;fillColor=none;collapsible=0;dropTarget=0;points=[[0,0.5],[1,0.5]];portConstraint=eastwest;top=0;left=0;right=0;bottom=0;" vertex="1" parent="tUD2QYdTVGgYaHRp5bcU-219">
          <mxGeometry y="120" width="180" height="30" as="geometry" />
        </mxCell>
        <mxCell id="tUD2QYdTVGgYaHRp5bcU-230" value="" style="shape=partialRectangle;connectable=0;fillColor=none;top=0;left=0;bottom=0;right=0;editable=1;overflow=hidden;whiteSpace=wrap;html=1;" vertex="1" parent="tUD2QYdTVGgYaHRp5bcU-229">
          <mxGeometry width="53.75" height="30" as="geometry">
            <mxRectangle width="53.75" height="30" as="alternateBounds" />
          </mxGeometry>
        </mxCell>
        <mxCell id="tUD2QYdTVGgYaHRp5bcU-231" value="remarks" style="shape=partialRectangle;connectable=0;fillColor=none;top=0;left=0;bottom=0;right=0;align=left;spacingLeft=6;overflow=hidden;whiteSpace=wrap;html=1;" vertex="1" parent="tUD2QYdTVGgYaHRp5bcU-229">
          <mxGeometry x="53.75" width="126.25" height="30" as="geometry">
            <mxRectangle width="126.25" height="30" as="alternateBounds" />
          </mxGeometry>
        </mxCell>
        <mxCell id="tUD2QYdTVGgYaHRp5bcU-232" style="shape=tableRow;horizontal=0;startSize=0;swimlaneHead=0;swimlaneBody=0;fillColor=none;collapsible=0;dropTarget=0;points=[[0,0.5],[1,0.5]];portConstraint=eastwest;top=0;left=0;right=0;bottom=0;" vertex="1" parent="tUD2QYdTVGgYaHRp5bcU-219">
          <mxGeometry y="150" width="180" height="30" as="geometry" />
        </mxCell>
        <mxCell id="tUD2QYdTVGgYaHRp5bcU-233" style="shape=partialRectangle;connectable=0;fillColor=none;top=0;left=0;bottom=0;right=0;editable=1;overflow=hidden;whiteSpace=wrap;html=1;" vertex="1" parent="tUD2QYdTVGgYaHRp5bcU-232">
          <mxGeometry width="53.75" height="30" as="geometry">
            <mxRectangle width="53.75" height="30" as="alternateBounds" />
          </mxGeometry>
        </mxCell>
        <mxCell id="tUD2QYdTVGgYaHRp5bcU-234" value="create_by" style="shape=partialRectangle;connectable=0;fillColor=none;top=0;left=0;bottom=0;right=0;align=left;spacingLeft=6;overflow=hidden;whiteSpace=wrap;html=1;" vertex="1" parent="tUD2QYdTVGgYaHRp5bcU-232">
          <mxGeometry x="53.75" width="126.25" height="30" as="geometry">
            <mxRectangle width="126.25" height="30" as="alternateBounds" />
          </mxGeometry>
        </mxCell>
        <mxCell id="tUD2QYdTVGgYaHRp5bcU-235" style="shape=tableRow;horizontal=0;startSize=0;swimlaneHead=0;swimlaneBody=0;fillColor=none;collapsible=0;dropTarget=0;points=[[0,0.5],[1,0.5]];portConstraint=eastwest;top=0;left=0;right=0;bottom=0;" vertex="1" parent="tUD2QYdTVGgYaHRp5bcU-219">
          <mxGeometry y="180" width="180" height="30" as="geometry" />
        </mxCell>
        <mxCell id="tUD2QYdTVGgYaHRp5bcU-236" style="shape=partialRectangle;connectable=0;fillColor=none;top=0;left=0;bottom=0;right=0;editable=1;overflow=hidden;whiteSpace=wrap;html=1;" vertex="1" parent="tUD2QYdTVGgYaHRp5bcU-235">
          <mxGeometry width="53.75" height="30" as="geometry">
            <mxRectangle width="53.75" height="30" as="alternateBounds" />
          </mxGeometry>
        </mxCell>
        <mxCell id="tUD2QYdTVGgYaHRp5bcU-237" value="create_date" style="shape=partialRectangle;connectable=0;fillColor=none;top=0;left=0;bottom=0;right=0;align=left;spacingLeft=6;overflow=hidden;whiteSpace=wrap;html=1;" vertex="1" parent="tUD2QYdTVGgYaHRp5bcU-235">
          <mxGeometry x="53.75" width="126.25" height="30" as="geometry">
            <mxRectangle width="126.25" height="30" as="alternateBounds" />
          </mxGeometry>
        </mxCell>
        <mxCell id="tUD2QYdTVGgYaHRp5bcU-238" style="shape=tableRow;horizontal=0;startSize=0;swimlaneHead=0;swimlaneBody=0;fillColor=none;collapsible=0;dropTarget=0;points=[[0,0.5],[1,0.5]];portConstraint=eastwest;top=0;left=0;right=0;bottom=0;" vertex="1" parent="tUD2QYdTVGgYaHRp5bcU-219">
          <mxGeometry y="210" width="180" height="30" as="geometry" />
        </mxCell>
        <mxCell id="tUD2QYdTVGgYaHRp5bcU-239" style="shape=partialRectangle;connectable=0;fillColor=none;top=0;left=0;bottom=0;right=0;editable=1;overflow=hidden;whiteSpace=wrap;html=1;" vertex="1" parent="tUD2QYdTVGgYaHRp5bcU-238">
          <mxGeometry width="53.75" height="30" as="geometry">
            <mxRectangle width="53.75" height="30" as="alternateBounds" />
          </mxGeometry>
        </mxCell>
        <mxCell id="tUD2QYdTVGgYaHRp5bcU-240" value="update_by" style="shape=partialRectangle;connectable=0;fillColor=none;top=0;left=0;bottom=0;right=0;align=left;spacingLeft=6;overflow=hidden;whiteSpace=wrap;html=1;" vertex="1" parent="tUD2QYdTVGgYaHRp5bcU-238">
          <mxGeometry x="53.75" width="126.25" height="30" as="geometry">
            <mxRectangle width="126.25" height="30" as="alternateBounds" />
          </mxGeometry>
        </mxCell>
        <mxCell id="tUD2QYdTVGgYaHRp5bcU-241" style="shape=tableRow;horizontal=0;startSize=0;swimlaneHead=0;swimlaneBody=0;fillColor=none;collapsible=0;dropTarget=0;points=[[0,0.5],[1,0.5]];portConstraint=eastwest;top=0;left=0;right=0;bottom=0;" vertex="1" parent="tUD2QYdTVGgYaHRp5bcU-219">
          <mxGeometry y="240" width="180" height="30" as="geometry" />
        </mxCell>
        <mxCell id="tUD2QYdTVGgYaHRp5bcU-242" style="shape=partialRectangle;connectable=0;fillColor=none;top=0;left=0;bottom=0;right=0;editable=1;overflow=hidden;whiteSpace=wrap;html=1;" vertex="1" parent="tUD2QYdTVGgYaHRp5bcU-241">
          <mxGeometry width="53.75" height="30" as="geometry">
            <mxRectangle width="53.75" height="30" as="alternateBounds" />
          </mxGeometry>
        </mxCell>
        <mxCell id="tUD2QYdTVGgYaHRp5bcU-243" value="update_date" style="shape=partialRectangle;connectable=0;fillColor=none;top=0;left=0;bottom=0;right=0;align=left;spacingLeft=6;overflow=hidden;whiteSpace=wrap;html=1;" vertex="1" parent="tUD2QYdTVGgYaHRp5bcU-241">
          <mxGeometry x="53.75" width="126.25" height="30" as="geometry">
            <mxRectangle width="126.25" height="30" as="alternateBounds" />
          </mxGeometry>
        </mxCell>
        <mxCell id="tUD2QYdTVGgYaHRp5bcU-244" style="shape=tableRow;horizontal=0;startSize=0;swimlaneHead=0;swimlaneBody=0;fillColor=none;collapsible=0;dropTarget=0;points=[[0,0.5],[1,0.5]];portConstraint=eastwest;top=0;left=0;right=0;bottom=0;" vertex="1" parent="tUD2QYdTVGgYaHRp5bcU-219">
          <mxGeometry y="270" width="180" height="30" as="geometry" />
        </mxCell>
        <mxCell id="tUD2QYdTVGgYaHRp5bcU-245" value="绑定金额" style="shape=partialRectangle;connectable=0;fillColor=none;top=0;left=0;bottom=0;right=0;editable=1;overflow=hidden;whiteSpace=wrap;html=1;" vertex="1" parent="tUD2QYdTVGgYaHRp5bcU-244">
          <mxGeometry width="53.75" height="30" as="geometry">
            <mxRectangle width="53.75" height="30" as="alternateBounds" />
          </mxGeometry>
        </mxCell>
        <mxCell id="tUD2QYdTVGgYaHRp5bcU-246" value="use_amount" style="shape=partialRectangle;connectable=0;fillColor=none;top=0;left=0;bottom=0;right=0;align=left;spacingLeft=6;overflow=hidden;whiteSpace=wrap;html=1;" vertex="1" parent="tUD2QYdTVGgYaHRp5bcU-244">
          <mxGeometry x="53.75" width="126.25" height="30" as="geometry">
            <mxRectangle width="126.25" height="30" as="alternateBounds" />
          </mxGeometry>
        </mxCell>
        <mxCell id="tUD2QYdTVGgYaHRp5bcU-247" value="" style="endArrow=none;html=1;rounded=0;exitX=1;exitY=0.5;exitDx=0;exitDy=0;" edge="1" parent="1" source="tUD2QYdTVGgYaHRp5bcU-115">
          <mxGeometry relative="1" as="geometry">
            <mxPoint x="334" y="403" as="sourcePoint" />
            <mxPoint x="546" y="406" as="targetPoint" />
          </mxGeometry>
        </mxCell>
        <mxCell id="tUD2QYdTVGgYaHRp5bcU-248" value="" style="resizable=0;html=1;whiteSpace=wrap;align=right;verticalAlign=bottom;" connectable="0" vertex="1" parent="tUD2QYdTVGgYaHRp5bcU-247">
          <mxGeometry x="1" relative="1" as="geometry" />
        </mxCell>
      </root>
    </mxGraphModel>
  </diagram>
</mxfile>
